# File created by Blade
# Date/Time:  Tue Apr 07 20:29:34 2015
# Frame Rate: 120.000 fps
#------------------------------------------------------
:FULLY-SPECIFIED
:DEGREES
2181
root 2.317550 34.865189 -4.466101 3.462213 2.089709 -44.740759
Spine -3.418105 -6.533039 34.962291
Head 12.374138 -35.918597 18.882877
LeftShoulder -19.869194 44.764045 17.987871
LeftArm 47.486487 -32.080729 -70.479750
LeftForeArm 2.891182 -0.000000 15.269722
LeftHand 9.095184 -0.000000 -1.049434
LeftHandThumb1 -26.253704 0.000000 33.147579
RightShoulder -11.777176 -10.390923 -6.801611
RightArm 3.129867 1.909446 74.666809
RightForeArm 17.450024 -0.000000 18.280044
RightHand 8.344000 -0.000000 10.878410
RightHandThumb1 -24.326973 -0.000000 -32.862282
LeftUpLeg -8.414939 -0.370226 41.294992
LeftLeg 12.354061 -0.000000 -0.000000
LeftFoot -8.894306 15.233803 -13.583251
LeftToeBase -7.988225 -0.000000 0.000000
RightUpLeg -59.300994 -19.186450 -38.282212
RightLeg 77.048929 -0.000000 -0.000000
RightFoot 44.291630 -2.640195 -5.689901
RightToeBase 35.458809 -0.000000 -0.000000
2182
root 2.318800 34.866959 -4.462073 3.466819 2.081817 -44.691158
Spine -3.409085 -6.581851 34.886896
Head 12.412083 -35.900735 18.864381
LeftShoulder -19.856378 44.736665 17.971404
LeftArm 47.557026 -31.920328 -70.378195
LeftForeArm 2.855337 0.000000 15.453959
LeftHand 9.089619 0.000000 -0.958593
LeftHandThumb1 -26.253704 0.000000 33.147579
RightShoulder -11.758663 -10.430669 -6.805028
RightArm 3.113465 1.803028 74.762263
RightForeArm 17.416178 -0.000000 18.233923
RightHand 8.359884 0.000000 10.883060
RightHandThumb1 -24.326973 -0.000000 -32.862282
LeftUpLeg -8.433824 -0.157402 41.249230
LeftLeg 12.381649 -0.000000 -0.000000
LeftFoot -8.739965 15.041083 -13.530309
LeftToeBase -8.178621 -0.000000 0.000000
RightUpLeg -59.263586 -19.119733 -38.243974
RightLeg 76.951263 -0.000000 -0.000000
RightFoot 44.339970 -2.585735 -5.746695
RightToeBase 35.435395 -0.000000 -0.000000
2183
root 2.320438 34.866653 -4.460829 3.497574 2.088287 -44.590138
Spine -3.429047 -6.621765 34.749730
Head 12.449722 -35.894864 18.861926
LeftShoulder -19.815711 44.697218 17.991824
LeftArm 47.615594 -31.757169 -70.294988
LeftForeArm 2.852701 -0.000000 15.656056
LeftHand 9.081479 -0.000000 -0.957144
LeftHandThumb1 -26.253704 0.000000 33.147579
RightShoulder -11.746980 -10.492804 -6.790132
RightArm 3.112378 1.688502 74.848227
RightForeArm 17.452921 -0.000000 18.194371
RightHand 8.374532 0.000000 10.913810
RightHandThumb1 -24.326973 -0.000000 -32.862282
LeftUpLeg -8.483284 -0.016863 41.138314
LeftLeg 12.392024 -0.000000 -0.000000
LeftFoot -8.561946 14.972282 -13.356219
LeftToeBase -8.470059 -0.000000 0.000000
RightUpLeg -59.239814 -19.083285 -38.258459
RightLeg 76.863102 -0.000000 -0.000000
RightFoot 44.311989 -2.518848 -5.737133
RightToeBase 35.540565 -0.000000 -0.000000
2184
root 2.324468 34.868041 -4.459827 3.506917 2.097487 -44.528632
Spine -3.424793 -6.673621 34.674031
Head 12.484157 -35.871705 18.836547
LeftShoulder -19.797006 44.717066 17.964779
LeftArm 47.757630 -31.615942 -70.286564
LeftForeArm 2.913476 -0.000000 15.835204
LeftHand 9.166473 -0.000000 -0.895565
LeftHandThumb1 -26.253704 0.000000 33.147579
RightShoulder -11.743403 -10.544882 -6.803459
RightArm 3.127334 1.618673 74.938623
RightForeArm 17.398624 0.000000 18.143478
RightHand 8.397544 0.000000 10.966322
RightHandThumb1 -24.326973 -0.000000 -32.862282
LeftUpLeg -8.522510 -0.080655 41.063453
LeftLeg 12.422802 -0.000000 -0.000000
LeftFoot -8.415704 15.101053 -13.191033
LeftToeBase -8.729078 -0.000000 0.000000
RightUpLeg -59.184550 -19.016110 -38.229337
RightLeg 76.744008 -0.000000 -0.000000
RightFoot 44.304172 -2.499730 -5.720502
RightToeBase 35.581931 -0.000000 -0.000000
2185
root 2.325049 34.870975 -4.459274 3.552580 2.095231 -44.490530
Spine -3.456405 -6.681169 34.614594
Head 12.535606 -35.866468 18.817398
LeftShoulder -19.736010 44.719970 17.983262
LeftArm 47.840759 -31.448874 -70.245528
LeftForeArm 2.946548 -0.000000 16.044495
LeftHand 9.122227 0.000000 -0.908341
LeftHandThumb1 -26.253704 0.000000 33.147579
RightShoulder -11.735992 -10.559046 -6.827836
RightArm 3.076739 1.584446 75.037378
RightForeArm 17.350663 -0.000000 18.087543
RightHand 8.426646 0.000000 10.975198
RightHandThumb1 -24.326973 -0.000000 -32.862282
LeftUpLeg -8.536763 -0.032213 40.995836
LeftLeg 12.349286 -0.000000 -0.000000
LeftFoot -8.186843 15.263157 -12.807188
LeftToeBase -9.047274 -0.000000 0.000000
RightUpLeg -59.185438 -18.964043 -38.147741
RightLeg 76.638836 -0.000000 -0.000000
RightFoot 44.314037 -2.505368 -5.686395
RightToeBase 35.514600 -0.000000 -0.000000
2186
root 2.326595 34.872251 -4.457322 3.589144 2.063144 -44.460836
Spine -3.460223 -6.698336 34.570847
Head 12.587136 -35.828083 18.766246
LeftShoulder -19.705281 44.688623 17.978994
LeftArm 47.863381 -31.251380 -70.151158
LeftForeArm 3.008893 -0.000000 16.248683
LeftHand 9.111795 -0.000000 -0.935246
LeftHandThumb1 -26.253704 0.000000 33.147579
RightShoulder -11.721096 -10.597575 -6.879646
RightArm 3.071748 1.497952 75.145613
RightForeArm 17.371279 -0.000000 18.037320
RightHand 8.393489 0.000000 10.894672
RightHandThumb1 -24.326973 -0.000000 -32.862282
LeftUpLeg -8.525904 -0.103826 40.930582
LeftLeg 12.292262 -0.000000 -0.000000
LeftFoot -8.014508 15.559784 -12.436136
LeftToeBase -9.283691 -0.000000 0.000000
RightUpLeg -59.192114 -18.889950 -38.052480
RightLeg 76.537517 -0.000000 -0.000000
RightFoot 44.228555 -2.554955 -5.620793
RightToeBase 35.627391 -0.000000 -0.000000
2187
root 2.332647 34.871787 -4.454219 3.633355 2.029422 -44.423375
Spine -3.482088 -6.693959 34.541659
Head 12.652219 -35.805594 18.677088
LeftShoulder -19.654120 44.673540 17.962085
LeftArm 47.905181 -31.065773 -70.068787
LeftForeArm 3.112283 0.000000 16.441244
LeftHand 8.983798 -0.000000 -0.739072
LeftHandThumb1 -26.253704 0.000000 33.147579
RightShoulder -11.710029 -10.619117 -6.962371
RightArm 3.017839 1.445778 75.251945
RightForeArm 17.411661 0.000000 18.016710
RightHand 8.389200 0.000000 10.920784
RightHandThumb1 -24.326973 -0.000000 -32.862282
LeftUpLeg -8.514745 -0.268565 40.847933
LeftLeg 12.231436 -0.000000 -0.000000
LeftFoot -7.875463 15.939442 -12.066582
LeftToeBase -9.522747 -0.000000 0.000000
RightUpLeg -59.202358 -18.833942 -37.945392
RightLeg 76.415461 -0.000000 -0.000000
RightFoot 44.212257 -2.490729 -5.680577
RightToeBase 35.503631 -0.000000 -0.000000
2188
root 2.335322 34.867666 -4.458063 3.739478 1.962605 -44.317924
Spine -3.527840 -6.636038 34.415570
Head 12.701688 -35.765444 18.637355
LeftShoulder -19.630682 44.685092 17.959344
LeftArm 48.012120 -30.851574 -69.969933
LeftForeArm 3.108157 -0.000000 16.538407
LeftHand 9.100117 -0.000000 -1.085900
LeftHandThumb1 -26.253704 0.000000 33.147579
RightShoulder -11.706954 -10.662906 -7.021641
RightArm 3.006065 1.434863 75.378301
RightForeArm 17.445081 -0.000000 17.972714
RightHand 8.417345 0.000000 10.992735
RightHandThumb1 -24.326973 -0.000000 -32.862282
LeftUpLeg -8.541494 -0.428236 40.698598
LeftLeg 12.182047 -0.000000 -0.000000
LeftFoot -7.766474 16.356552 -11.718419
LeftToeBase -9.731033 -0.000000 0.000000
RightUpLeg -59.325955 -18.825074 -37.869851
RightLeg 76.315770 -0.000000 -0.000000
RightFoot 44.169003 -2.498606 -5.659589
RightToeBase 35.631723 -0.000000 -0.000000
2189
root 2.340371 34.864903 -4.459102 3.815680 1.892433 -44.265555
Spine -3.554507 -6.603477 34.370645
Head 12.779174 -35.692856 18.533858
LeftShoulder -19.607251 44.673629 17.924731
LeftArm 48.040480 -30.610539 -69.799460
LeftForeArm 3.231640 -0.000000 16.646663
LeftHand 9.141504 -0.000000 -1.125743
LeftHandThumb1 -26.253704 0.000000 33.147579
RightShoulder -11.674621 -10.712176 -7.115348
RightArm 2.983513 1.481589 75.495971
RightForeArm 17.438848 0.000000 17.920890
RightHand 8.514754 -0.000000 11.148212
RightHandThumb1 -24.326973 -0.000000 -32.862282
LeftUpLeg -8.514767 -0.515738 40.593412
LeftLeg 12.086268 -0.000000 -0.000000
LeftFoot -7.582340 16.716381 -11.196311
LeftToeBase -10.017439 -0.000000 0.000000
RightUpLeg -59.407887 -18.799434 -37.722958
RightLeg 76.196457 -0.000000 -0.000000
RightFoot 44.122958 -2.449110 -5.764169
RightToeBase 35.507526 -0.000000 -0.000000
2190
root 2.348229 34.862251 -4.458768 3.862955 1.767700 -44.223973
Spine -3.517670 -6.552825 34.336102
Head 12.838538 -35.613974 18.445098
LeftShoulder -19.580744 44.624317 17.901292
LeftArm 48.038595 -30.381129 -69.666782
LeftForeArm 3.457967 0.000000 16.775003
LeftHand 9.038755 -0.000000 -0.988190
LeftHandThumb1 -26.253704 0.000000 33.147579
RightShoulder -11.645589 -10.736091 -7.201596
RightArm 2.975781 1.436870 75.575426
RightForeArm 17.485052 -0.000000 17.868909
RightHand 8.506863 -0.000000 11.241996
RightHandThumb1 -24.326973 -0.000000 -32.862282
LeftUpLeg -8.425846 -0.818826 40.516884
LeftLeg 12.016799 -0.000000 -0.000000
LeftFoot -7.512044 17.182318 -10.900108
LeftToeBase -10.165075 -0.000000 0.000000
RightUpLeg -59.510113 -18.706752 -37.566691
RightLeg 76.081977 -0.000000 -0.000000
RightFoot 44.056944 -2.509192 -5.623092
RightToeBase 35.673247 -0.000000 -0.000000
2191
root 2.359155 34.856813 -4.457443 3.928249 1.671760 -44.141660
Spine -3.526954 -6.531350 34.274364
Head 12.942310 -35.518621 18.327362
LeftShoulder -19.562297 44.622463 17.855079
LeftArm 48.086719 -30.187365 -69.567118
LeftForeArm 3.647581 -0.000000 16.849202
LeftHand 9.030414 0.000000 -0.945921
LeftHandThumb1 -26.253704 0.000000 33.147579
RightShoulder -11.620259 -10.777572 -7.293563
RightArm 2.988038 1.408282 75.648901
RightForeArm 17.506005 -0.000000 17.814456
RightHand 8.533323 -0.000000 11.340283
RightHandThumb1 -24.326973 -0.000000 -32.862282
LeftUpLeg -8.361175 -1.124917 40.394525
LeftLeg 11.931504 -0.000000 -0.000000
LeftFoot -7.442668 17.633738 -10.571813
LeftToeBase -10.354851 -0.000000 0.000000
RightUpLeg -59.598505 -18.704929 -37.419426
RightLeg 75.952550 -0.000000 -0.000000
RightFoot 44.035030 -2.470882 -5.625985
RightToeBase 35.558981 -0.000000 -0.000000
2192
root 2.365307 34.854672 -4.461405 4.019642 1.546249 -44.124677
Spine -3.528770 -6.476547 34.272147
Head 13.015694 -35.409525 18.243583
LeftShoulder -19.554197 44.603074 17.809501
LeftArm 48.107641 -29.961040 -69.416630
LeftForeArm 3.887019 -0.000000 16.909026
LeftHand 9.002366 -0.000000 -1.032131
LeftHandThumb1 -26.253704 0.000000 33.147579
RightShoulder -11.584988 -10.802973 -7.393353
RightArm 2.993771 1.397659 75.721894
RightForeArm 17.672600 -0.000000 17.762427
RightHand 8.632037 -0.000000 11.042115
RightHandThumb1 -24.326973 -0.000000 -32.862282
LeftUpLeg -8.291512 -1.141589 40.331715
LeftLeg 11.815350 -0.000000 -0.000000
LeftFoot -7.324048 17.863888 -10.183680
LeftToeBase -10.280599 -0.000000 0.000000
RightUpLeg -59.766230 -18.673593 -37.166746
RightLeg 75.845119 -0.000000 -0.000000
RightFoot 44.042999 -2.521970 -5.572532
RightToeBase 35.615832 -0.000000 -0.000000
